<svg width="360" height="361" viewBox="0 0 360 361" fill="none" xmlns="http://www.w3.org/2000/svg">
<path d="M82.9699 332.824C85.3014 311.133 96.2714 280.556 98.6188 279.2C100.966 277.844 136.829 284.613 160.823 280.766C188.333 276.355 211.127 266.883 227.33 254.933C240.277 243.437 246.995 236.064 258.237 221.663C271.574 203.167 275.485 189.04 282.384 164.125L282.492 163.733L290.708 122.244C292.829 103.697 293.157 93.2342 292.664 74.4911C292.664 74.4911 292.64 71.4948 291.49 70.1855C290.119 68.6237 286.405 68.6199 286.405 68.6199C286.405 68.6199 263.89 69.9509 249.63 72.1426C230.875 75.0253 220.497 77.7496 202.292 83.1022C185.185 88.1321 175.372 90.73 159.258 98.3673C145.334 104.967 137.249 108.694 125.222 118.329C114.172 127.182 108.032 132.767 100.184 144.554C93.3625 154.799 90.62 161.4 86.8821 173.127C82.2804 187.565 81.5352 196.34 81.0138 211.486C80.5871 223.883 82.9699 243.19 82.9699 243.19C83.8568 248.73 88.8382 263.935 88.0558 267.066C87.2734 270.198 70.4508 312.079 69.2772 321.864C68.4951 328.518 1.98728 261.978 1.98728 207.963C-7.10503 138.008 14.9474 82.6901 69.2772 39.6553C140.326 -16.623 238.518 -12.9096 303.227 50.2235C356.254 101.958 371.734 165.893 351.347 236.145C320.288 343.174 186.643 398.19 82.9699 332.824Z" fill="#509947"/>
<path d="M105.661 264.327C103.313 262.971 118.002 240.554 127.569 226.359C136.761 212.721 142.508 205.421 153.39 193.089C164.115 180.935 170.71 174.605 182.731 163.733C197.653 150.239 224.201 132.812 223.027 131.637C221.853 130.463 193.232 147.307 176.08 160.211C163.961 169.328 157.602 175.068 146.739 185.652C136.902 195.237 131.385 200.705 122.874 211.486C116.963 218.974 114.11 223.528 108.79 231.448C105.032 237.043 100.575 245.93 99.4012 245.93C98.2275 245.93 96.3351 229.549 95.8802 218.923C95.4287 208.375 95.3257 202.33 97.0539 191.915C98.9377 180.563 100.547 174.041 105.661 163.733C110.58 153.818 114.454 148.649 122.092 140.64C130.213 132.123 135.937 128.414 145.956 122.244C154.393 117.048 159.547 114.812 168.647 110.893C177.172 107.221 182.149 105.63 190.947 102.673C200.477 99.4692 205.863 97.7639 215.594 95.236C225.282 92.7192 230.816 91.7168 240.632 89.7562C255.225 86.8413 277.407 82.5291 278.189 83.3119C278.971 84.0948 278.032 101.996 276.624 114.024C275.076 127.252 271.147 147.059 271.147 147.685C271.147 148.312 262.54 178.216 262.54 178.216C262.54 178.216 255.092 196.956 248.456 207.963C242.695 217.519 239.355 223.003 231.634 231.056C222.729 240.345 216.734 244.888 205.422 251.019C194.289 257.052 174.907 261.978 174.907 261.978C174.907 261.978 155.93 265.651 143.609 266.284C128.789 267.044 108.008 265.682 105.661 264.327Z" fill="#509947"/>
</svg>
